<?xml version="1.0" encoding="UTF-8"?>
<svg width="100pt" height="100pt" version="1.1" viewBox="0 0 100 100" xmlns="http://www.w3.org/2000/svg">
 <g>
  <path d="m28.125 55.285 4.3203-2.1602-4.3203-2.1602z"/>
  <path d="m40.625 43.75h-18.75v18.75h18.75zm-3.9883 10.781-9.375 4.6875c-0.48828 0.24219-1.0625 0.21484-1.5234-0.070312-0.46094-0.28906-0.74219-0.79297-0.73828-1.3359v-9.375c0-0.54297 0.28125-1.043 0.74219-1.3281 0.46094-0.28516 1.0352-0.3125 1.5195-0.070313l9.375 4.6875c0.53125 0.26563 0.86328 0.80469 0.86328 1.3984s-0.33203 1.1328-0.86328 1.3984z"/>
  <path d="m90.625 62.5c-2.8438 0.007812-5.3203 1.9336-6.0312 4.6875h-12.719v-17.188h10.938c7.7656 0 14.062-6.2969 14.062-14.062s-6.2969-14.062-14.062-14.062h-3.2188c-0.54297-4.9648-3.6836-9.2656-8.25-11.293-4.5625-2.0273-9.8594-1.4727-13.906 1.4492-3.7109-4.7031-9.0859-7.8047-15.016-8.6641-5.9297-0.85938-11.961 0.58594-16.855 4.043-4.8945 3.4531-8.2812 8.6523-9.457 14.527-7.5312 0.57422-13.262 7-12.973 14.551 0.28906 7.5469 6.4961 13.516 14.051 13.512h1.5625v-9.375h23.438c0.41406 0 0.8125 0.16406 1.1055 0.45703s0.45703 0.69141 0.45703 1.1055v7.8125h7.8125v15.625c0.007812 2.5859 2.1016 4.6797 4.6875 4.6875h12.5v17.188c0.007812 2.5859 2.1016 4.6797 4.6875 4.6875h4.9062c0.78516 3.0469 3.7188 5.0352 6.8398 4.6367 3.1211-0.39453 5.4609-3.0508 5.4609-6.1992s-2.3398-5.8047-5.4609-6.1992c-3.1211-0.39844-6.0547 1.5898-6.8398 4.6367h-4.9062c-0.86328 0-1.5625-0.69922-1.5625-1.5625v-17.188h12.719c0.60156 2.3047 2.457 4.0664 4.7891 4.543 2.3359 0.47656 4.7344-0.41797 6.1914-2.3008 1.4531-1.8867 1.7109-4.4336 0.66016-6.5703-1.0547-2.1367-3.2266-3.4883-5.6094-3.4844zm-21.875 4.6875h-12.5c-0.86328 0-1.5625-0.69922-1.5625-1.5625v-15.625h14.062z"/>
  <path d="m59.375 82.812c0.003906 3.1445-2.332 5.8008-5.4531 6.1953-3.1172 0.39844-6.043-1.5859-6.8281-4.6328h-4.9062c-2.5859-0.007812-4.6797-2.1016-4.6875-4.6875v-14.062h3.125v14.062c0 0.41406 0.16406 0.8125 0.45703 1.1055s0.69141 0.45703 1.1055 0.45703h4.9062c0.78516-3.0469 3.7109-5.0312 6.8281-4.6328 3.1211 0.39453 5.457 3.0508 5.4531 6.1953z"/>
  <path d="m25 65.625v21.875c-0.007812 2.5859-2.1016 4.6797-4.6875 4.6875h-4.9062c-0.78516 3.0469-3.7188 5.0352-6.8398 4.6367-3.1211-0.39453-5.4609-3.0508-5.4609-6.1992s2.3398-5.8047 5.4609-6.1992c3.1211-0.39844 6.0547 1.5898 6.8398 4.6367h4.9062c0.41406 0 0.8125-0.16406 1.1055-0.45703s0.45703-0.69141 0.45703-1.1055v-21.875z"/>
 </g>
</svg>
