<?xml version="1.0" encoding="UTF-8"?>
<svg width="100pt" height="100pt" version="1.1" viewBox="0 0 100 100" xmlns="http://www.w3.org/2000/svg">
 <path d="m6.2344 2.9375c-2.918 0-5.2344 2.3164-5.2344 5.2383v54.871h81.355l-1.3281-2.3281-1.6992 0.98047-0.003906 0.003906c-0.33984 0.19922-0.76172 0.19141-1.0938-0.015625-0.33594-0.20703-0.52734-0.58203-0.5-0.97266l0.24219-3.7305h-15.227c-2.0859 0-3.793-1.7109-3.793-3.7969s1.7109-3.7969 3.793-3.7969h15.797v-0.003906c0.17188-0.34766 0.51953-0.57812 0.91016-0.59375 0.17578-0.007813 0.35547 0.03125 0.51562 0.10938l9.8086 4.8516h-0.003906c0.35547 0.17188 0.58203 0.52734 0.59375 0.92188 0.011718 0.39062-0.19141 0.75781-0.53125 0.95703l-1.707 0.98438 3.7109 6.4336h7.1602v-54.871c0-2.9219-2.3164-5.2383-5.2344-5.2383zm3.9414 8.4961h20.48c0.28516 0 0.55859 0.10938 0.76172 0.30859 0.20312 0.19922 0.31641 0.47266 0.31641 0.75781s-0.11328 0.55859-0.31641 0.75781c-0.20312 0.19922-0.47656 0.3125-0.76172 0.30859h-20.48c-0.28516 0.003906-0.55859-0.10938-0.76172-0.30859-0.19922-0.19922-0.31641-0.47266-0.31641-0.75781s0.11719-0.55859 0.31641-0.75781c0.20313-0.19922 0.47656-0.30859 0.76172-0.30859zm58.41 0h21.242-0.003906c0.28516 0 0.55469 0.11328 0.75391 0.3125 0.19922 0.19922 0.3125 0.47266 0.3125 0.75391v22.645c0.054687 0.35156-0.074219 0.70703-0.33594 0.94531-0.26172 0.23828-0.62891 0.33203-0.97266 0.24609h-20.996-0.011719-0.058594c-0.007813-0.003907-0.015625-0.003907-0.019531-0.003907-0.03125-0.003906-0.0625-0.007812-0.089844-0.011719-0.003906 0-0.003906 0-0.007812-0.003906-0.03125-0.003906-0.0625-0.007812-0.09375-0.015625-0.003907-0.003906-0.007813-0.003906-0.007813-0.003906-0.066406-0.019531-0.13281-0.042969-0.19531-0.074219 0 0-0.003906-0.003906-0.007812-0.003906-0.027344-0.015625-0.054688-0.03125-0.082031-0.046875-0.003907-0.003906-0.007813-0.003906-0.011719-0.007813-0.023438-0.015624-0.050781-0.035156-0.074219-0.054687-0.003906 0-0.003906 0-0.007812-0.003906-0.082031-0.0625-0.15234-0.14062-0.21484-0.22656v-0.003906c-0.015625-0.027344-0.035156-0.054688-0.050781-0.085938-0.003906-0.003906-0.007813-0.007812-0.007813-0.011718-0.015625-0.027344-0.03125-0.054688-0.042969-0.082032v-0.003906c-0.011718-0.03125-0.019531-0.0625-0.03125-0.09375 0-0.003906-0.003906-0.011718-0.003906-0.019531-0.007812-0.027344-0.015625-0.054687-0.019531-0.082031-0.003906-0.007813-0.007813-0.015625-0.007813-0.019532-0.007812-0.03125-0.007812-0.058593-0.011718-0.089843v-0.007813c-0.003906-0.03125-0.007813-0.0625-0.007813-0.097656v-0.003906-22.77c0-0.28125 0.11328-0.55469 0.3125-0.75391 0.19922-0.19922 0.46875-0.3125 0.75391-0.3125zm1.0664 2.1328v18.062c2.3633-2.543 5.9609-4.0312 9.5547-4.0312 3.582 0 7.1836 1.5352 9.5547 4.0898v-18.117zm9.5547 2.2305c2.6719 0 4.8594 2.1914 4.8594 4.8633s-2.1875 4.8594-4.8594 4.8594-4.8594-2.1875-4.8594-4.8594 2.1875-4.8633 4.8594-4.8633zm0 2.1328c-1.5195 0-2.7266 1.2109-2.7266 2.7305 0 1.5195 1.207 2.7305 2.7266 2.7305s2.7266-1.2109 2.7266-2.7305c0-1.5195-1.207-2.7305-2.7266-2.7305zm-69.031 1.0977h43.996c0.58594 0.003906 1.0547 0.48047 1.0547 1.0625 0 0.58594-0.46875 1.0625-1.0547 1.0664h-43.996c-0.58594-0.003906-1.0547-0.48047-1.0547-1.0664 0-0.58203 0.46875-1.0586 1.0547-1.0625zm0 7.5898h43.996c0.28516-0.003907 0.55859 0.10547 0.76172 0.30859 0.20312 0.19922 0.31641 0.47266 0.31641 0.75391 0 0.28516-0.11328 0.55859-0.31641 0.75781-0.20312 0.20312-0.47656 0.3125-0.76172 0.30859h-43.996c-0.28516 0.003906-0.55859-0.10547-0.76172-0.30859-0.20312-0.19922-0.31641-0.47266-0.31641-0.75781 0-0.28125 0.11328-0.55469 0.31641-0.75391 0.20313-0.20312 0.47656-0.3125 0.76172-0.30859zm69.031 3.1094c-3.5039 0-7.0664 1.8008-8.8672 4.4805h17.699c-1.832-2.6406-5.4062-4.4805-8.8359-4.4805zm-69.035 4.4805h0.003906 43.996c0.28906-0.007812 0.56641 0.097657 0.77344 0.30078 0.20703 0.19922 0.32422 0.47656 0.32422 0.76563 0 0.28516-0.11719 0.5625-0.32422 0.76172-0.20703 0.20312-0.48437 0.30859-0.77344 0.30078h-43.996c-0.28906 0.011718-0.57031-0.097657-0.77734-0.29688-0.20703-0.20312-0.32422-0.47656-0.32422-0.76562 0-0.28906 0.11719-0.5625 0.32422-0.76563 0.20703-0.19922 0.48437-0.30859 0.77344-0.30078zm0.003906 7.5898h79.648c0.58594 0.003906 1.0625 0.48047 1.0625 1.0664 0 0.58594-0.47656 1.0625-1.0625 1.0664h-79.648c-0.58594-0.003907-1.0625-0.48047-1.0625-1.0664 0-0.58594 0.47656-1.0625 1.0625-1.0664zm11.148 7.5898h15.777c2.0859 0 3.7969 1.7148 3.7969 3.7969 0 2.0859-1.7109 3.7969-3.7969 3.7969h-15.777c-2.0859 0-3.793-1.7109-3.793-3.7969 0-2.0859 1.7109-3.7969 3.793-3.7969zm0 2.1289c-0.94141 0-1.6641 0.72656-1.6641 1.668s0.72656 1.668 1.6641 1.668h15.777c0.94141 0 1.6641-0.72266 1.6641-1.668 0-0.94141-0.72266-1.668-1.6641-1.668zm41.418 0c-0.94141 0-1.6641 0.72656-1.6641 1.668s0.72656 1.668 1.6641 1.668h15.363l0.21484-3.3359zm17.711 0.003906-0.26953 4.1836h0.003906c0.035156 0.1875 0.023438 0.37891-0.035156 0.55859l-0.16797 2.6016 0.75781-0.4375c0.17969-0.14844 0.40234-0.23047 0.63672-0.23828 0.34766-0.011719 0.67969 0.14844 0.88672 0.42578 0.015625 0.023438 0.03125 0.042969 0.042969 0.0625 0.011718 0.019531 0.019531 0.035157 0.03125 0.054688v0.007812l2.4609 4.3125h4.5742l-3.6289-6.2891c-0.16016-0.26953-0.19141-0.59766-0.089844-0.89453 0.10156-0.29688 0.33203-0.53125 0.625-0.64453l0.76172-0.4375zm-79.457 13.66v8.4961h98v-8.4961h-14.535c-0.16406 0.042968-0.33984 0.042968-0.50781 0zm45.961 3.1836h0.003907 0.015624 6.0508 0.011718c0.28906-0.007812 0.56641 0.10156 0.77344 0.30469 0.20312 0.20312 0.32031 0.47656 0.31641 0.76562 0 0.28906-0.11719 0.5625-0.32422 0.76562-0.21094 0.19922-0.48828 0.30469-0.77734 0.29297h-6.0508c-0.28516 0.011718-0.56641-0.09375-0.77344-0.29297-0.21094-0.19922-0.32812-0.47266-0.33203-0.76172s0.11328-0.5625 0.31641-0.76562c0.20703-0.20312 0.48438-0.3125 0.77344-0.30859zm-6.7773 7.4453-5.4609 19.121h-7.4805c-1.4336-0.011719-1.4336 2.1445 0 2.1328h39.422 0.046875 6.0391c1.4336 0.011719 1.4336-2.1445 0-2.1328h-7.4805l-5.4609-19.121z"/>
</svg>
